/* XPM */
static char *result[] = {
/* columns rows colors chars-per-pixel */
"40 40 231 2 ",
"   c #030201",
".  c #0A0703",
"X  c #0C0A06",
"o  c #0F0D09",
"O  c #150C02",
"+  c #110E09",
"@  c #13120B",
"#  c #1E1307",
"$  c #1E1A12",
"%  c #191614",
"&  c #2A1604",
"*  c #251907",
"=  c #2D1F10",
"-  c #2D2103",
";  c #3D2307",
":  c #3A2709",
">  c #23231B",
",  c #2C2C1D",
"<  c #282318",
"1  c #372715",
"2  c #34331F",
"3  c #3B3B1F",
"4  c #2C2A23",
"5  c #353423",
"6  c #3A3622",
"7  c #3B3B22",
"8  c #34322A",
"9  c #39392B",
"0  c #3D3C31",
"q  c #3C3732",
"w  c #302C28",
"e  c #413107",
"r  c #47351A",
"t  c #513512",
"y  c #653B0D",
"u  c #693E13",
"i  c #463C25",
"p  c #5E4216",
"a  c #54521F",
"s  c #6A4E0D",
"d  c #774714",
"f  c #7A521A",
"g  c #77570E",
"h  c #454225",
"j  c #4B432C",
"k  c #48482E",
"l  c #444435",
"z  c #494939",
"x  c #4E4735",
"c  c #514531",
"v  c #564B35",
"b  c #5E5E3E",
"n  c #56523C",
"m  c #56472E",
"M  c #675A25",
"N  c #765726",
"B  c #62563B",
"V  c #78593E",
"C  c #6A633E",
"Z  c #65633D",
"A  c #726C37",
"S  c #5A5546",
"D  c #514A42",
"F  c #6B5D42",
"G  c #7C5C48",
"H  c #655D55",
"J  c #656542",
"K  c #6D6944",
"L  c #65644C",
"P  c #6D6B49",
"I  c #6E6148",
"U  c #746C4B",
"Y  c #7C6C4C",
"T  c #736847",
"R  c #7D714F",
"E  c #74704E",
"W  c #646450",
"Q  c #6B6856",
"!  c #776C56",
"~  c #7D7150",
"^  c #74745A",
"/  c #7E7C5B",
"(  c #7A7755",
")  c #7F756B",
"_  c #835916",
"`  c #925F1D",
"'  c #8C6316",
"]  c #9A6719",
"[  c #9D721C",
"{  c #865822",
"}  c #8A6628",
"|  c #966522",
" . c #907D2C",
".. c #886536",
"X. c #967335",
"o. c #A67B34",
"O. c #AC7F2B",
"+. c #846245",
"@. c #896A49",
"#. c #916E4C",
"$. c #8C714F",
"%. c #866A55",
"&. c #857553",
"*. c #8B7553",
"=. c #867957",
"-. c #8A7956",
";. c #837B5C",
":. c #8B7D5B",
">. c #81775D",
",. c #997755",
"<. c #9C7A56",
"1. c #9D7D5B",
"2. c #927758",
"3. c #A57A58",
"4. c #887D67",
"5. c #967F63",
"6. c #897E73",
"7. c #B79514",
"8. c #AE9214",
"9. c #988326",
"0. c #A88729",
"q. c #B59828",
"w. c #B48431",
"e. c #CEAA0A",
"r. c #DBB607",
"t. c #D0A510",
"y. c #D6B218",
"u. c #CDAB0F",
"i. c #E5BC1D",
"p. c #C0A53F",
"a. c #CCB432",
"s. c #D4B426",
"d. c #E9CB0C",
"f. c #F2CD10",
"g. c #E0C115",
"h. c #DFC43C",
"j. c #EBCB37",
"k. c #E7CA33",
"l. c #8D815F",
"z. c #80805E",
"x. c #98845E",
"c. c #B78B4B",
"v. c #A48255",
"b. c #A3845C",
"n. c #A9865B",
"m. c #AB895B",
"M. c #A88957",
"N. c #B38A5D",
"B. c #B0875D",
"V. c #AD904A",
"C. c #8D8463",
"Z. c #8B8B6B",
"A. c #86856B",
"S. c #918564",
"D. c #918966",
"F. c #95836D",
"G. c #948E6D",
"H. c #9A8667",
"J. c #95916E",
"K. c #9B916E",
"L. c #8F8D72",
"P. c #9C8B70",
"I. c #969472",
"U. c #9A9675",
"Y. c #999977",
"T. c #9C9B79",
"R. c #98957A",
"E. c #A28563",
"W. c #AD8664",
"Q. c #AD8B63",
"!. c #A2866B",
"~. c #A28E6D",
"^. c #AF8E6B",
"/. c #BA8966",
"(. c #BB8E6E",
"). c #A79268",
"_. c #B69568",
"`. c #A58D73",
"'. c #A5947A",
"]. c #A39D7B",
"[. c #AB9B7B",
"{. c #A99574",
"}. c #B29D7B",
"|. c #B0967A",
" X c #A6A07E",
".X c #AAA17F",
"XX c #B7A77B",
"oX c #B8B86C",
"OX c #C5B251",
"+X c #CCBA6E",
"@X c #C4B078",
"#X c #E2CB41",
"$X c #E9D75E",
"%X c #FFE34F",
"&X c #FAE15A",
"*X c #DBD066",
"=X c #F4E564",
"-X c #9B8F83",
";X c #A69A87",
":X c #B09E8B",
">X c #A4A384",
",X c #ACA382",
"<X c #AEA987",
"1X c #ADAD8C",
"2X c #A9A688",
"3X c #B2A583",
"4X c #B6A886",
"5X c #BAA987",
"6X c #B5A48A",
"7X c #B5AD8C",
"8X c #BBAB89",
"9X c #B9A588",
"0X c #BDB18F",
"qX c #B2B18F",
"wX c #B9A994",
"eX c #B4B493",
"rX c #BBB393",
"tX c #BCB39A",
"yX c #BBBB99",
"uX c #BBB997",
"iX c #BFB0A0",
"pX c #C1B195",
"aX c #C5B5A4",
"sX c #C4BCA2",
"dX c #CCBBAB",
"fX c #C8BCA7",
"gX c #D1BFAF",
"hX c #D1C0AF",
"jX c #D4C3B2",
"kX c #DAC9B8",
"lX c None",
/* pixels */
"lXlXlXlXlXlXlXlXlXlXlXlXlXlXlXlXlXlXlXlXlXlXlXlXlXlXlXlXlXlXlXlXlXlXlXlXlXlXlXlX",
"lXlXlXlXlXlXlXlXlXlXlXlXlXlXlXlX> 8 0 0 0 0 0 0 0 9 lXlXlXlXlXlXlXlXlXlXlXlXlXlX",
"lXlXlXlXlXlXlXlX> > > > 4 > > > L >XqX1XqXqXqX1XqX1Xl > > lXlXlXlXlXlXlXlXlXlXlX",
"lXlXlXlXlXlXlX8 R.>X>X>X>X>X>X>XqXR.l l l l l l l D R.>XQ X lXlXlXlXlXlXlXlXlXlX",
"lXlXlXlXlXlXl A.W L L W W W W L W n 3 3 7 3 2 2 , 5 >X,XS X lXlXlXlXlXlXlXlXlXlX",
"lXlXlXlXlXlX0 A.W 9 , , , , , 2 2 7 k k j h 3 k W ^ 1X Xz.S lXlXlXlXlXlXlXlXlXlX",
"lXlXlXlXlXlXlXw >XQ l z l 5 5 7 a M M M m h 3 S 1X1X1X1X2XL.l lXlXlXlXlXlXlXlXlX",
"lXlXlXlXlXlXlX4 Z.2XeXeXR.5 2 7 8.d.g.d.M 3 2 k P J P P B ! >X> lXlXlXlXlXlXlXlX",
"lXlXlXlXlXlXlXlX5 ~ U.I.P 3 8.*X#Xj.=Xg.*Xa.8.8.0.Z J J Z z.>X, lXlXlXlXlXlXlXlX",
"lXlXlXlXlXlXlXlXlX6 T G.Z.Z $X%X&X=X#Xf.j.y.e.a.oX XT. XT.>XI.> lXlXlXlXlXlXlXlX",
"lXlXlXlXlXlXlXlXlXlXi ) 2XJ.oXs.j.#Xr.r.t.p.OX+XeXrXqX1X<XI.W $ lXlXlXlXlXlXlXlX",
"lXlXlXlXlXlXlXlXlXlXX z T.1Xz. .8.u.r.7.q.8XeX7X3X.XT.U.;.n @ lXlXlXlXlXlXlXlXlX",
"lXlXlXlXlXlXlXlXlXlX. i :.R.qX;.q.r.t.s.@X4X XU.K.4.I.4.v @ lXlXlXlXlXlXlXlXlXlX",
"lXlXlXlXlXlXlXlXlX    2 K ( ,X;.9.y.j.@X5X>XG.:.l.K.:.c $ lXO . lXlXlXlXlXlXlXlX",
"lXlXlXlXlXlXlXlXlX  e f } ..XX( A V.+X8X.XV.c.V.X.V.o.} p i X.s & lXlXlXlXlXlXlX",
"lXlXlXlXlXlXlXlXlXS +.X.] { }.K.z.~.8X.X2.X.w.w.[ w.| ] p r o._ t & lXlXlXlXlXlX",
"lXlXlXlXlXlXlXlXD ].3Xx.} } {..X4X3X.Xl.N | | ' ] ' f u - & g y g ;   lXlXlXlXlX",
"lXlXlXlXlXlXlXD fXsX0X,XJ.=.U Z.Y.I.D.N ' f f { f { C 7 @ + O * g e   lXlXlXlXlX",
"lXlXlXlXlXlXS aXsXfXpX5X3XJ.;.E E P P C C Y Y C F Z J B b k # y ' :   lXlXlXlXlX",
"lXlXlXlXlXQ wXgXfXsXrX3X].Y.{.F.=.R R R R C.l.R ~ ~ ~ ~ T b k : : - lXlXlX    lX",
"lXlXlXlXH ;XkXdXaXyXrX,XT.,X5X`.S.C.D.C.D.I.J.l.-.-.S.D.;.U P 9 @   lXlXO ; O lX",
"lXlXlX% -XkXfXaX9XrX7X,X[.8X}.E.H.R.Y.Y.Y.Y.Y.J.l.=.J.Y.G.:.:.T 5 o * i t d & lX",
"lXlXlXw ;XjXaXwXQ.6X;X X9X}.3.,.~.>XY.Y.Y.U.Y.T.J.l.I.Y.Y.Y.I.=.T 6 N c.c.d & lX",
"lXlX4 :XdXfXtXwX1.1.<.).XXx.,.,.<.~.2X,XH.b.|.,XY.I.Y.Y.Y.Y.I.=.%.! B 1 1 # lXlX",
"lXlX4 wXgXdXiXeXm.v.v.m.Q.M.v.v.v.n.).).n.|.9X,XY.Y.Y.Y.Y.Y.Y.G.:.-.Y c o lXlXlX",
"lX8 ) aXgXdXiXtXm.M.m.m.N.N.N.N.N.N.N.n.n.4XuX7X XY.Y.Y. X XY.Y.:.-.-.I + lXlXlX",
"lXq jXgXfXfXyXuX^.M.n.W._._./././././.W.^.rXuXrX5X].Y.T.,X4XT.Y.C.-.-.F + lXlXlX",
"lXq gXgXdXfXaXwX3X3.3.3.W././././././.(.wXtXrX8X5X5X].,X8X5X3XY.Y.S.-.F + lXlXlX",
"lXq gXgXdXaX6X5.5.,.,.,.3.M.m.W.W.W.^.9XpXwX8X8X8X5XT.XX8X3XT.Y.Y.C.-.F + lXlXlX",
"lXq gXgXsXyXqX'.$.+.*.2.,.<.3.<.<.3.1.!.!.!.|.6X8X8X4X5X8X3XY.Y.U.C.-.F + lXlXlX",
"lX8 A.aXsXyXtX0X`.!.P.S.#.#.#.#.#.#.#.#.#.5.[.4X5X8X8X8X8X3XY.Y.U.S.T i lXlXlXlX",
"lXlX> ;XyXyXyXuXtXtX,XC...+.2.+.+.+.+.*.2.'.6X8X8X5X3X3X3X.XY.Y.I.S.v o lXlXlXlX",
"lXlX4 L.eXyXyXyXyXuXP.G G G ~.%.G G %.;X<X4X4X4X8X4XT.Y.Y.Y.Y.I.:.&.v . lXlXlXlX",
"lXlXlX8 4.rXyXyXyXyXwX2XG.V H.%.:.{.2X9X8X].T.T.T.T.Y.Y.Y.Y.I.:.-.j $ lXlXlXlXlX",
"lXlXlXlXS 4.8XrX0X0X8X7XU.V H.5.'.5X8X5X].T.Y.Y.Y.Y.Y.Y.G.l.:.=.j < lXlXlXlXlXlX",
"lXlXlXlXlXc Q ! ].,X,X,XU.*.2.F.'.,X X XT.Y.Y.I.D.D.D.D.l.Y c c > lXlXlXlXlXlXlX",
"lXlXlXlXlXlXo 4 ^ ( ^ A.U.P.2.F.U.Y.Y.J.G.I.G.D.-.=.I F F v o . lXlXlXlXlXlXlXlX",
"lXlXlXlXlXlXlXlX@ @ @ z Z.Z.4.Z.Z.Z.A.Y Y Y Y Y Y T < + + + lXlXlXlXlXlXlXlXlXlX",
"lXlXlXlXlXlXlXlXlXlXlXlX> > > > > > > $ $ $ $ $ $ $ lXlXlXlXlXlXlXlXlXlXlXlXlXlX",
"lXlXlXlXlXlXlXlXlXlXlXlXlXlXlXlXlXlXlXlXlXlXlXlXlXlXlXlXlXlXlXlXlXlXlXlXlXlXlXlX"
};
