/* XPM */
static char *result[] = {
/* columns rows colors chars-per-pixel */
"64 64 83 1 ",
"  c #64A42C",
". c #6AA82B",
"X c #85B927",
"o c #7CB328",
"O c #8BBD26",
"+ c #7CB428",
"@ c #67A62C",
"# c #83B827",
"$ c #6EAB2A",
"% c #62A32C",
"& c #73AE2A",
"* c #8ABD26",
"= c #89BC26",
"- c #88BC26",
"; c #71AD2A",
": c #63A32C",
"> c #84B927",
", c #6FAB2A",
"< c #8ABC26",
"1 c #71AC2A",
"2 c #61A22C",
"3 c #70AB2A",
"4 c #86BA26",
"5 c #69A72B",
"6 c #63A42C",
"7 c #6CA92B",
"8 c #81B727",
"9 c #87BA26",
"0 c #7DB428",
"q c #88BB26",
"w c #7AB328",
"e c #66A52C",
"r c #6DAA2B",
"t c #86BA27",
"y c #85BA27",
"u c #72AD2A",
"i c #6EAA2A",
"p c #65A52C",
"a c #68A72B",
"s c #75AF29",
"d c #74AE29",
"f c #68A62B",
"g c #7BB328",
"h c #70AC2A",
"j c #79B229",
"k c #78B129",
"l c #67A62B",
"z c #69A82B",
"x c #8CBE25",
"c c #7AB228",
"v c #8CBE26",
"b c #82B827",
"n c #76B029",
"m c #7FB528",
"M c #87BB26",
"N c #80B627",
"B c #7EB528",
"V c #62A22C",
"C c #80B628",
"Z c #6BA82B",
"A c #79B129",
"S c #6BA92B",
"D c #65A42C",
"F c #7FB628",
"G c #77B129",
"H c #77B029",
"J c #76AF29",
"K c #6DAA2A",
"L c #82B727",
"P c #84B827",
"I c #73AD2A",
"U c #74AF29",
"Y c #8DBF25",
"T c #8DBE25",
"R c #8BBE26",
"E c #66A62C",
"W c #61A22D",
"Q c #8EBF25",
"! c #7DB528",
"~ c #7AB229",
"^ c #73AE29",
"/ c #81B627",
"( c white",
/* pixels */
"     .X.oO+ @#$%&*=-=;:                     @>,::$==<123=456    ",
"   :789.50qwero,&Ot1>yu:   6:6       ::    6eX#$$#***;%@irp     ",
"   :,*-+a.su %8dfgy@hsr6  :&g;     :5jkf  :ljdX&d4dddz6 ::      ",
"   :,==Ogz%: 1>0.5ke::6   1>xo:   :5cv=.: 5sgdXdrs:::       66  ",
"   :$==bqn%p,4*Oc%6     pimMOg:   ag-8Nhe%u#@Bbh:6         6556 ",
"    1=>.Bj .>=MMje     6.8.B<c@@ 6kM+p@bhV1Cppp            pw0e ",
"  :uM>Z 0=A S>;@s+      paDFGuy8l6@5f e#1:ea               gq-0p",
":  5,r  .mB% re:a7    :7c  7l&y$p :1k: rf 6%:           :  mOOqm",
"j566::  :SndD: :7u:  6rF=je22.;6  6SHsp: 6SAnp6       :.sp NNdcO",
"+5:      .g# :6SBt1 :%kq++d;u7%::  5cye::V;x=sl::::   .g>p J,25g",
"65@     :&4#7SDs#bCKSp&j:pB=MnpSSe:u#BrSS.&LLL7l77.  %nO>7D6    ",
"lNu:     pd=yM,pepzbt;pp  pBJ:7997:De7#X9=0lee Aq4#5  H*=#S     ",
"#=u:    :dM#iy41: D5.os:   a@:7==7::rFSzFOq0p :g0;-#.GM*#rFK:   ",
"*nf     n4xbei1a%: 6:7Z    6:$guMbi:f$ :7,,r  kqcp,,D00HPe$f%rBB",
"Jl:     ;GHID:2iku:  :6     :U#edk7:::  :7Hu6 IHi:pdk>NsuD::iFvv",
":       :::: 67NY>,p        :$k :::5r6  %GTthD%ZS:a98yRLrD :cM00",
"             .L4byX@              @j85  lgq>Mi HH $ySHM*#e :nk: ",
"            5#*s ,#5     e       pc==La c-g749r  7XtS6n=8e  Elp ",
"          6.L=O&%piC.: 6.F56     gq<=-85aSaDry$: eZ.p6@Sz  :U>g ",
"+0K:   :  :7qd15  p1oK:6phe  6:EcqvBHO=.%:6  ,E:  ::   :6 :syxq0",
"*Ou2:  u5: asp%6    s7:.u:  :.;lM0kKaGGH5%:  %u76         d98n+*",
"<*j$7p,tka  :      6%6%ht,p65w>1ga%6 : ws,7 p$+h:       eh0F,W7=",
">>M*B59=*n:        55epd<9z%k*<tr5e     B=k:@Fr:       6.N5l@:7#",
"@eg*0ZM=*n:  p    z#Mh&9q9z6k=q=4t1:    0Ae  ED      pD DfeBU:D@",
" 65Su#==*n::e07::Sb=<XHZ1t.jH.u==&e  6  akk         :ks%aC8-s%6 ",
":::%,4stxJZg+qr%%rO=*RH2ehe,Z%edM7%%.kp :7$         nH..BOR*8gJD",
"Us.V,>esc7hO**g55Jgq+Xk% :::6 6pnfrUotp6 6::     6pdMh50-cAXRTbp",
"*Ou@dge:%lk<=8Nsg8@+askZ  rl    6ZFvq0$e 6l7    6e;q*,s=c :HNNAD",
"=*1u+   ej*=ba:H9+   :sg .Ni:   pN*qg.XZ:psLp   p1-=<&ng        ",
"q<Ip@   cq=La  ef@  D ee.87     pNOcpz>.:J=Lp  :uM=q=qHp        ",
"Kby&: 6 .rrZ    6   g$%6e7p      .Nc%p7pH9OLp: :dRyh>vH%  6     ",
" 8Qc%eG@%:::     6pAM8$% :       :Kr  :6CFg#eH.%5cy@,>A: pk.:   ",
"Dsg$EHqGa6      :@n-=R8$  :       ::    di.AsqK77fHe%Ih6 pkHS6  ",
" :a7s<=*h%      @U*<<P8k  7E6           6 :Zq81BF.:  6    6ju:  ",
" :wqt===u@E    :&-yy4h D 5N1D       p@     iLrC<q0l        le   ",
"  +g1-==4yj    :U85aap 6.8r0d:     :iN@  :hF78-*g,N@       od:  ",
"Dj-Api,Xv+.     aS:66 :78-8-J:     :,qNFr%u#er#xcprp     : .As.C",
" ;n7%2%1sS:    62aHe 6$Nv=GUS6 : :6:,**v1%.; :hsi6:     akl1>ols",
" :25uu1 %6     r&sje :h0gwuE: lhp,5%.0-B.::%  ::6      6ajfCYg::",
"  ljO*=1p     :sqN    66:p>,::rt,#kl:aB55le.            p.DA#n6 ",
" eg<-44q;       dB   epp@5>; :7qq==k: p 0Hu8p    DE     r>7ppp  ",
"D+q*N5Z>M&:     ea   cUr>>q4u%7q==*k:   BM4Lp   :rC@  :$X-Xr:   ",
":78FZ: rh.    6ss:   SHb*=&#n2S-=s,.   :0OOq+l %ibXe6:h>4u9,%   ",
"kf$i:  :%%:   :,h::: %nvMsph7Z!qG@%6  pstNUcq5:,NOMkf%k4up&jK6  ",
"+.::6   ru7:  $5%@;he%HMk  :%iBcp6   :pjB,2a~@%cO=*<S%1s%::Hh:  ",
".e l5   !vm5  o;D1#q;D^c6           e.      6 a0Oq#Lhe:eZ.D     ",
">7%sB   0*=8l ppsm.>4, p eeD        hLe     eDBqqBe@Fh:1qXS     ",
".e%nC   0*==8f%JqNp.Ze :58#r:     :u4>E   :.FaNk5a  5pu4<=>r:   ",
":6&>4je 0OCs=Czg8S :: :S8=sl     :u>O#Ekr%r84f75:6  6VHbU=O$%   ",
" :oO*tp:0x+enk5$k;:  6KkkJe%:::  u>vOMc-1%Z+qcf:     h#BenHkr6 :",
" :gv9o1eBtU6:: %,+,p :uH:::7hhr pb>0BBmB7::a0BZ:     sCs ::k1%e,",
" acyc5Nzcd:     :7F@      5N**8DD01:                 f@      p;=",
"pB&pe e eep   pD pf      e8=q=8e ep      pp     Dp  6ok     :;MM",
" .@6    :Uk   g;27Be     e>Okn=F@:      :sk:   :1g  :+qk6   :&#7",
"g5:    :%cm6  $koCq+f: 6agMAaau&g.V,s:  %GMH  6;#Mj@HXOMG    z$6",
"=r:  :p&.$u   %gT**Oc56:Z<Oi% %pHfrNyup hNOMUe:wO*ya#x8Bqsp6 :%:",
"q7:6@rpgK%6 6 6&XMmF=u:650m7: 6 6SNOO>e6H4t8M5%cO*XakNhZ8-&@:l,$",
"-1Dp&>ZD   pa  :I0DpBh:      ef p8M>4>ZD:nj./aEjyXN@fe 6.#>r s==",
"q4hIq=>Z   7L5  pE  @p      6ImDDNsp1q>.:eeD@DBsel@EN1: D@l nqq=",
"77At<==#r%i#-LS: 6666      :d9L  .@:p14Z:     8s%:@F=1%  :6%jmu-",
"6d>O**=O1Wh*=<i::5wcl:   : :g#dkp::6: 1@      ,.%5gs4bh%@kEd4gS=",
" 8v#ko-0.S0*=<iV5c*<k56 @up:1h7qn@,rf1:6   :  ::ZHkpso,@k=GGch5A",
"$#Xu%l+a%&88qNZfc*==*;::Z4ue::.Nq7skJt,p  f7   :1~  6:lHq8-s7z :",
"-<&:  D    7X5:j*===<1::.M=$:  aXr%s<=9.::uLp    D   :s*b5#=<w6 "
};
