/* XPM */
static char *result[] = {
/* columns rows colors chars-per-pixel */
"64 64 86 1 ",
"  c #2C261B",
". c #252A1F",
"X c #29291C",
"o c #342116",
"O c #3C2414",
"+ c #312318",
"@ c #3D2619",
"# c #0C3E2E",
"$ c #153627",
"% c #1B3325",
"& c #153628",
"* c #133D2C",
"= c #183928",
"- c #432714",
"; c #472814",
": c #4B2A16",
"> c #402618",
", c #442819",
"< c #4B2C19",
"1 c #512D17",
"2 c #532D1A",
"3 c #582F19",
"4 c #5C321B",
"5 c #63341D",
"6 c #5B3923",
"7 c #643921",
"8 c #6A3E24",
"9 c #0F412E",
"0 c #014435",
"q c #014B36",
"w c #034438",
"e c #024D3A",
"r c #075336",
"t c #0A5334",
"y c #0E5A34",
"u c #01533B",
"i c #025B3E",
"p c #0A5E3D",
"a c #125C34",
"s c #0B623B",
"d c #0C6C3E",
"f c #146235",
"g c #186734",
"h c #176B36",
"j c #1A6A34",
"k c #116E3D",
"l c #0F703F",
"z c #1F7335",
"x c #14753E",
"c c #19773C",
"v c #1C7A3B",
"b c #237635",
"n c #267E37",
"m c #297E35",
"M c #227D39",
"N c #654127",
"B c #6D4025",
"V c #654329",
"C c #6D4429",
"Z c #6E492C",
"A c #734B2E",
"S c #744D30",
"D c #025E41",
"F c #026442",
"G c #036B45",
"H c #096E42",
"J c #0D7141",
"K c #107340",
"L c #278037",
"P c #2B8235",
"I c #258039",
"U c #318634",
"Y c #358933",
"T c #3B8C32",
"R c #3F9033",
"E c #42912F",
"W c #4A972F",
"Q c #4D992F",
"! c #539D2E",
"~ c #439231",
"^ c #499630",
"/ c #4D9930",
"( c #57A02D",
") c #5EA42C",
"_ c #60A62C",
"` c None",
/* pixels */
"````````````````````````````````````````````````````````````````",
"```````````````````````0``````q`````````````````````````````````",
"`````````````````````0qFuuFFiuiuuiq`````````````````````````````",
"````````````````````qidcHdvMMvlGHxdueiquu```````````````````````",
"``````````````````uiqxvLPPLUUPPnPLcllcisFuueq```````````````````",
"`````````````````qFJkUYY(^T(!PPUPPLPLLhccddJpe``````````````````",
"`````````````````ivLLE)!)_)_)!!(QWYPYLLPPLLPcGFuuuq`````````````",
"``````````````eirjYYL~)_))))__))_))!)~QYLYEULvxHGdu`````````````",
"`````````````uulMmT(Q!___))__)_))))_))_(R))UPPPLMLaqq```````````",
"`````````uuqicxLUU^))!!))_)))_)_)_)__)_))))W^QTPPPvGHi0`````````",
"`````````sxFvPPY!))!UUW)_))_)__)))_)_)_)))))_(TPPPnnLyq`````````",
"`````````annPPPP^)!E~Q)))__)_)))__)_)_)_)^UEWULPPY~~Pnde0```````",
"```````fjbLPPPPPPYW)_!(_)_)_)_)_)__)_)_))(EPTRPPPW)(ELbfay``````",
"```````fmPTWEPPPPE__!YE!_)_)_)_)_))__))))))())(!YPYYUPPPLg``````",
"```````tjY((UPPPU!__!W!)_))_)___)_)))_)_))_)))))(UPPPPPPby``````",
"``````fmPEWUPPPPU!__!!__)_))))___))__)_)((Q)))WTTPPPPPPPLg0`````",
"`````amLPPPPPPLY/__QPE__)()!~E!_)_))_))_QYLR))~LPPPPPPPPnt``````",
"`````amPPPPPPPLR!(!RPW)))~^QT/)__)__)_^E!WUT))(RPR!EUPLPmy``````",
"`````aabLPPPPPTTPPUPY))~YUP^_)_))__)/!~PR)(()_))!UW)WPPbyq``````",
"`````qybUPPPU!)~LPPLU)(PPPY!__)__)))~T(EY(__))Q~YPPRTPPmggg0````",
"````qjmPLPLcI(~UPPPPP~)W!W!)/)_)))_))))))))__(UPPmPPPPPPPUzt````",
"````tjnHKLJHJLLLLLPPUPE!___QPQ)_))__)_)!)))!Q(~PEWTLPPPPPbt`````",
"````qfsGKLLIURKJJMPY!QPE___!~!_)QTQ)))QU~()QPWRUR(_EPPPLPmmj````",
"``````eGKPPT(~HGHmU)__TPY!TT!__QPPPQ))EPLY!!PW)(WEW!UPvJMmjgq```",
"`````DFcPPP^^vGGHM^___!PPPPPQ__/TWYT~)~LPPPUPU(_)(TUPPIlHdiq````",
"````iGHvPPLcGGGGJKY~(_/UPT^UY^!)QTTYPYUPPPPPPPUQWUPvPPPLnKGi````",
"```qFGHcPPJGGGGGGGGGR!YLY()!YLYYUPPPPYPPUTW!(WUPUvGGxPPPPLdu````",
"```uGGGJLPvcGGGGGGGGJKvL/_(_TU~YLPPPE(YPW)(_))WUPPIlGvPPLLJGu```",
"``qFGGJLPPPvGGHGGGGGGHGK~!~QY~_YPPPPY_!UW_))(RPPPPPIcILPPLciuq``",
"``uDGHLPPPPcHKvGGGGGHIMvUYPPU/QUPPPPPTEPY()))RPPPPIlJvPPPLnxGGFq",
"`uGGGcPLPPLIIPLJGGGGJUUUPPPPPPUPPLLLLvlnPUQTEQPUvxvcGJLPPLHGGFu0",
"eFGGGHcIPvHHLPPvGJMJKULLPPPPPPP/QIHvPnGHIPPPPPPvxGGHcvPPLLHGFu``",
"0quGGGHnvHJnPLnMvLPJHMLmLPLMKIU)(LHJLLKGvPPPPPPJGGGKKLPPPPMJGGu`",
"``iGGGHcvnLPLKJLLUKGGJJGMUIHJnU!LvccLKHJMPPPPPLJGJHcKHcPLncJFDu`",
"``uDGGGGGJKPLHJLKJGGJGGGvMLHHMKUJGxnLHJnULKvPLPKHMccmJGMPLJGFe``",
"```wFGFiFGJPLcnnGGGKLJGGHKMHKJHnxGGGKnLLPYKMLcnJGcMPUMvMPMKGGu``",
"```qFuewDGHcJcPLHGGKvGGGGHvMMHKPcHJHHLUnJKJKmHGGGGHvPPLcJGGGGu``",
"````ewwwFGGGHmPPJGGJGGGGGcLUPMPULLPvJLPvHGGGKGGGGGGMPPPMGGFiDu``",
"```````eGGFDHMKKJGGGGGGGJLPPPPPPLPLPPLvPmKGGGGGGGGGKPKMMGuq`````",
"```````DGDwDGDFGGGGGGGGGHMLKvPnnPnKKKJHcPMGGGGGGGGGGMHGGi0``````",
"``````eFDuwDwwFGGGDDwDDDDDJFGKGHvvGGGGGGKJGGGDFFGGDeFGGGFq``````",
"``````0q0www#wFDDGDD##DDw#DDGGGGFFGDDFGGGGGGDDDDGGFweiFGGu0`````",
"`````````wwwwwew#D##`#wwDeeGGGGFeuD0weFGGDGFwwwuFGGDeweeue0`````",
"`````````w```www#ww```wweFFHGGGDw0*.#wwuDDFD#ww0wDDiewww````````",
"``````````````w````````DeFuDGGsi* +o&www#w0eww0wwwwww00`````````",
"```````````````````````#0u%9Fi#%+ooo&#wwD#ww#w`0www`````````````",
"````````````````````````%.++$%+oooo+ . ``ww0w````0``````````````",
"````````````````````````ooooo+ooO<<@22o`````````````````````````",
"````````````````````````ooOOooo-55CV75<`````````````````````````",
"````````````````````ooooOOO--OO;57CZ<43@````````````````````````",
"`````````````````````o+oOoO:3-O:5ASA4451o```````````````````````",
"`````````````````````ooOOO-15-O:5ASS853432<@````````````````````",
"````````````````````oo+OOO-35--;5AAA853;<1<3<>``````````````````",
"`````````````````oooooOOoO-53-O:BSAA7554-OOO:11`````````````````",
"```````````````oooooOOOOOO-;;OO:CSAC<;353>oooO@`````````````````",
"```````````````ooooooooOO-O--OO:CAV<;O;5573`````````````````````",
"```````````````````ooOOOOO-OOOO4CA<OOOO-:455````````````````````",
"````````````````````````oooO-Oo5B6oooooOOO;35```````````````````",
"```````````````````````````oOO,55,``````````3```````````````````",
"````````````````````````````oo253```````````````````````````````",
"`````````````````````````````+35````````````````````````````````",
"``````````````````````````````3`````````````````````````````````",
"````````````````````````````````````````````````````````````````",
"````````````````````````````````````````````````````````````````"
};
