/* XPM */
static char *result[] = {
/* columns rows colors chars-per-pixel */
"40 63 150 2 ",
"   c #14963F",
".  c #159B3E",
"X  c #17A33D",
"o  c #18A53D",
"O  c #17A93B",
"+  c #18AB3B",
"@  c #1BBD37",
"#  c #1AB439",
"$  c #1BB938",
"%  c #21BB3E",
"&  c #1CC236",
"*  c #1ECA34",
"=  c #1FC439",
"-  c #1FD033",
";  c #21DD2F",
":  c #21CC36",
">  c #22C23C",
",  c #23C93A",
"<  c #28CD3F",
"1  c #20D432",
"2  c #21DC30",
"3  c #2AD43D",
"4  c #2BDE38",
"5  c #23E42E",
"6  c #24EC2C",
"7  c #25F02B",
"8  c #24E330",
"9  c #2AE634",
"0  c #27E930",
"q  c #2BED33",
"w  c #2EE63A",
"e  c #2EEC38",
"r  c #33E33C",
"t  c #34EE3C",
"y  c #2AF031",
"u  c #34F03C",
"i  c #0F8840",
"p  c #138C42",
"a  c #198D46",
"s  c #1D8D48",
"d  c #149241",
"f  c #1A9546",
"g  c #1B9A44",
"h  c #1E9A49",
"j  c #22934D",
"k  c #219D4B",
"l  c #249650",
"z  c #2A9554",
"x  c #32985A",
"c  c #1DA542",
"v  c #1EA843",
"b  c #25A34D",
"n  c #28A54F",
"m  c #2BAC4D",
"M  c #30AF4E",
"N  c #22B341",
"B  c #2AB447",
"V  c #26BC44",
"C  c #2BB14D",
"Z  c #2BBE48",
"A  c #32BE4F",
"S  c #2AA751",
"D  c #2CAA52",
"F  c #31A355",
"G  c #31AF55",
"H  c #34B257",
"J  c #37BB56",
"K  c #36B458",
"L  c #3DBC5C",
"P  c #26C241",
"I  c #2AC245",
"U  c #2CCB43",
"Y  c #30C447",
"T  c #31C04E",
"R  c #36CA4F",
"E  c #2ED243",
"W  c #33D647",
"Q  c #33D945",
"!  c #39D54B",
"~  c #3ADD4B",
"^  c #3BC955",
"/  c #3FC55B",
"(  c #35E642",
")  c #37EC41",
"_  c #3AEE43",
"`  c #3CE34A",
"'  c #3FEE49",
"]  c #3BF143",
"[  c #3FF048",
"{  c #41C35F",
"}  c #43CB5D",
"|  c #44D25B",
" . c #47D95B",
".. c #49D95D",
"X. c #41E64D",
"o. c #42EC4C",
"O. c #42F14B",
"+. c #45EC51",
"@. c #4AEC54",
"#. c #4EE65D",
"$. c #4BEC58",
"%. c #55EE5C",
"&. c #47F250",
"*. c #4AF253",
"=. c #4EF358",
"-. c #51F45B",
";. c #45C561",
":. c #49C764",
">. c #46C862",
",. c #4ACB65",
"<. c #54CC6D",
"1. c #4CD364",
"2. c #4ED862",
"3. c #4FD168",
"4. c #52DE65",
"5. c #52D46A",
"6. c #57D96D",
"7. c #59DC6F",
"8. c #63DB76",
"9. c #56EE63",
"0. c #5AEE61",
"q. c #59E36B",
"w. c #5AEC69",
"e. c #57F462",
"r. c #59F463",
"t. c #5FF568",
"y. c #5FF869",
"u. c #5FE273",
"i. c #63F56D",
"p. c #63F86D",
"a. c #62E674",
"s. c #64E975",
"d. c #6BEF7A",
"f. c #67F573",
"g. c #6BF674",
"h. c #66F970",
"j. c #6AF974",
"k. c #6EF47A",
"l. c #6EF979",
"z. c #72F77E",
"x. c #72FA7D",
"c. c #72ED81",
"v. c #77F481",
"b. c #7AF784",
"n. c #76FA81",
"m. c #79FA83",
"M. c #7DF589",
"N. c #7EF989",
"B. c #83FA8D",
"V. c None",
/* pixels */
"V.V.V.V.V.V.V.V.V.V.V.V.V.n.n.n.x.x.n.n.x.m.x.x.m.x.x.V.V.V.V.V.V.V.V.V.V.V.V.V.",
"V.V.V.V.V.V.V.V.V.V.V.V.V.x.x.n.n.x.l.x.x.z.x.x.x.x.x.V.V.V.V.V.V.V.V.V.V.V.V.V.",
"V.V.V.V.V.V.V.V.V.V.V.m.e.t @.V.V._ t _ u u u u t t _ i.N.V.V.V.V.V.V.V.V.V.V.V.",
"V.V.V.V.V.V.V.V.V.V.m.x.=.6 9 V.V.5 6 6 6 6 0 5 6 6 6 e.z.V.V.V.V.V.V.V.V.V.V.V.",
"V.V.V.V.V.V.V.V.V.m.e.[ U O c j k o + + + + O + O O + Q [ r.B.V.V.V.V.V.V.V.V.V.",
"V.V.V.V.V.V.V.V.n.n.O.6 & p p p p p p p p p p a p p   * 7 =.x.b.V.V.V.V.V.V.V.V.",
"V.V.V.V.V.V.V.V.m.n.O.6 & i p p p p p p p p p z V.a p * 6 -.n.b.V.V.V.V.V.V.V.V.",
"V.V.V.V.V.V.V.V.b.n.&.6 & p p p p p p p p p p V.V.a d * 6 -.n.b.V.V.V.V.V.V.V.V.",
"V.V.V.V.V.V.V.B.r.*.E @ X p p p g @ > } >.>.:.c.M.l p O @ Q *.t.B.V.V.V.V.V.V.V.",
"V.V.V.V.V.V.m.z.O.6 # p p p p p O 6 t x.n.n.n.n.x.D p p p @ 6 &.x.n.V.V.V.V.V.V.",
"V.V.V.V.V.V.m.x._ 6 # p n L L L R 6 q =.-.-.-.-.-.} L k   B _ t.n.m.V.V.V.V.V.V.",
"V.V.V.V.V.V.m.z.[ 6 +   ;.n.n.n.i.6 7 6 6 7 6 6 q i.x.K i V.V.V.n.m.V.V.V.V.V.V.",
"V.V.V.V.V.V.N.N.! * Z K | r.r.r.+.: * * * * * 6 0 *.r.C i j V.2.e.i.V.V.V.V.V.V.",
"V.V.V.V.n.n.V.V.a   ,.x.-.6 6 6 1 p p p p p d ; 6 6 6 + p p p $ 6 O.n.m.V.V.V.V.",
"V.V.V.V.n.x.V.V.f p ,.m.=.6 5 1 = o X p d X + * 1 5 6 I D k p $ 6 O.z.m.V.V.V.V.",
"V.V.V.V.n.z._ q + i ,.m.=.6 *   + 6 1 d   8 5 X d 1 6 r.v.L i $ 6 O.z.n.V.V.V.V.",
"V.V.V.V.m.l.) 6 N i } h.' - $ p X 2 * d d 1 1 g d - 6 =.h.J i $ 6 O.x.m.V.V.V.V.",
"V.V.V.V.m.l._ 6 + i = y = d f p p d d p d d d d d - 7 0 y $ i $ 6 O.x.m.V.V.V.V.",
"V.V.V.V.l.h.( 8 O i & 8 $ p p p p p p p p p p p d * 8 6 0 = h V ; X.x.N.V.V.V.V.",
"V.V.m.l.) q + d d d d d d p p p p p p p p p p d p d d - 7 $.k./   F V.V.n.m.V.V.",
"V.V.m.l._ 9 c p d d d d p p d f f f f g f d p p p p p * 6 =.m.,.p j V.V.n.n.V.V.",
"V.V.n.n.V.V.d p & 2 N i d i H s.s.s.s.s.7.f p p p p d * 6 =.n.,.p + q O.z.n.V.V.",
"V.V.n.z.V.V.f i - 6 $ i f d J l.x.x.l.x.d.b d p p p d * 5 =.l.>.p + 5 ) l.x.V.V.",
"m.z.O.( S l p d * 6 $ i K u.#.) u _ u _ _ q.6.h p p i . X 3 ] P p d X % t o.z.n.",
"x.j.q 5 . p p d * 6 # i { n.e.6 6 6 6 6 e j.k.b p d p p p @ 6 & p d p c 6 t l.n.",
"x.g.q 5 X p @ 1 $ v . i P ] u 6 - O $ 5 0 ] ' 4.5.b p p p & 6 ` 6.<.V.Y 6 t l.n.",
"n.j.q 5 . d 1 6 # i p p $ 6 6 6 - d X 5 7 6 q h.n.D p p i & 6 *.n.B.V.V.6 t l.n.",
"n.j.q 5 . d o # g i K 3.~ 6 - $ O d d + # # $ ` ' v p p d & 6 *.n.a.x B 5 t l.n.",
"x.j.q 8 . p p p p i 3.m.-.6 * p i p d p p p d 2 6 O p p i & 6 *.n.5.p O 6 t l.n.",
"n.g.e 0 C z f p p p D { W 0 * p p p p p p p d # $ d p p d & 7 &.n.5.p o 6 t l.n.",
"x.j.q q V.V.a p d p i i $ 7 * p p p p p p p p p p p p p i & 6 *.n.5.p + 5 t x.x.",
"x.g.q 0 M V.a p i d c $ - 6 * p p p p p d # # d p p d O $ - 6 &.x.5.p g ` %.x.x.",
"n.j.q 5 . p p p p p & 6 6 7 *   d p p p d 8 5 c i d i * 6 6 6 *.n.3.d p V.V.m.n.",
"n.j.q 5 . p O +   p & 6 ; : # p p p p p g 8 0 T G f i $ - ; 6 &.n.5.d h V.t.n.z.",
"x.g.q 0 .   1 6 + p > 7 @ p p p p p i d d ; y p.n.D d p i & 6 *.m.3.i c 0 ) l.n.",
"x.l.o.r g   > 1 o p # 1 # p p p p p d i X 5 0 h.n.D i p d & 6 *.n.5.i O 6 e l.n.",
"x.m.V.V.a p p d   p p p   p p p i i d i d 5 q h.n.n p d p & 0 *.m.5.d O 0 e l.n.",
"n.x.V.V.f p p p h n f p p p p p d c g d d 5 q h.n.S i d i & 7 ` u.>.i O 0 u l.n.",
"n.j.t 9 . p p d 3.k.K p p p p p O 5 - d . 5 q h.n.D i i p & 7 = f d p c 5 u l.n.",
"n.k.u w O   p p 6.n./ .   p f j N 6 ; . O 5 0 w.u.b d d g * u > d d d # e ] l.m.",
"V.V.z.i.w 2 X p 6.n.+.8 $ i H k.9.0 6 5 5 5 5 v f d d & 5 =.j.>.p + 5 ( j.z.V.V.",
"V.V.m.l.t 6 X p ,.k.&.y = p H d.e.e q 6 7 y w g p p p * 6 -.m.>.p + 6 _ x.n.V.V.",
"V.V.x.l.t 5 O p h k 1.j./ p d k J f.r.0 e y.i.v p p d * 6 =.n.>.  O 6 _ l.x.V.V.",
"V.V.m.z.t 6 v a p p ,.n.:.p p p D c.y.0 e f.d.h p d d * y =.v.:.s + q _ x.m.V.V.",
"V.V.V.V.g.i.V.V.s i 1.n.:.p d p f b S c c S b f d & - =.p.} b D V.8.i.l.V.V.V.V.",
"V.V.V.V.m.n.V.V.s p ,.m.>.i p p p p i d i i p p d - 0 e.n.L p s V.V.n.M.V.V.V.V.",
"V.V.V.V.n.z.O.e v p ,.n.#.- $ p p p p d d p d p d c + C G h i N u -.x.N.V.V.V.V.",
"V.V.V.V.n.z._ 6 + p ,.n.*.7 * p p p p p p p i d i i p i i p p $ 6 O.z.b.V.V.V.V.",
"V.V.V.V.n.x.] 6 + p :.n.=.7 * i X = & d   & , } 3.k p p p p p $ 6 o.x.m.V.V.V.V.",
"V.V.V.V.n.z.t 6 O p ,.n.=.7 = p O 6 -     5 y h.v.D i p p p p $ 6 O.z.m.V.V.V.V.",
"V.V.V.V.V.N.e.=.E @ A {  .-.` & & @ $ @ = 5 0 ^ L k p p p O & Q =.i.B.V.V.V.V.V.",
"V.V.V.V.V.V.m.x.[ 6 # i { n.e.7 - p . 5 6 6 5 X p p p p p = 6 *.x.N.V.V.V.V.V.V.",
"V.V.V.V.V.V.V.N._ 6 $ p D ,...*.` $ > &.O.&.+.c i p p p   & 6 *.n.v.V.V.V.V.V.V.",
"V.V.V.V.V.V.V.V.r 6 # p p p K n.y.7 u l.n.n.k.b   p p p   & 7 &.n.n.V.V.V.V.V.V.",
"V.V.V.V.V.V.V.V.+.O.U + . p S 5.| * U 3.5.5.3.h p j l c X U O.r.N.V.V.V.V.V.V.V.",
"V.V.V.V.V.V.V.V.b.n.O.6 = p p p p p p p d p p p a V.V.0 6 =.n.b.V.V.V.V.V.V.V.V.",
"V.V.V.V.V.V.V.V.m.n.&.6 & p p p p p p p p j j a p V.V.4 6 -.x.b.V.V.V.V.V.V.V.V.",
"V.V.V.V.V.V.V.V.n.z.O.6 @ p p p p p p p a V.V.p p s a * 6 -.x.b.V.V.V.V.V.V.V.V.",
"V.V.V.V.V.V.V.V.V.m.-.u Y l f X X X c . c V.V.c X X X 3 u r.N.V.V.V.V.V.V.V.V.V.",
"V.V.V.V.V.V.V.V.V.V.x.x.v.V.V.5 5 5 5 5 6 0 0 6 5 5 5 e.x.V.V.V.V.V.V.V.V.V.V.V.",
"V.V.V.V.V.V.V.V.V.V.V.m.V.V.0.t e e e e e u e u q t t r.m.V.V.V.V.V.V.V.V.V.V.V.",
"V.V.V.V.V.V.V.V.V.V.V.V.V.m.x.j.j.j.j.j.j.j.j.j.j.j.l.V.V.V.V.V.V.V.V.V.V.V.V.V.",
"V.V.V.V.V.V.V.V.V.V.V.V.V.x.n.n.n.n.n.n.n.n.n.n.n.n.n.V.V.V.V.V.V.V.V.V.V.V.V.V."
};
