/* XPM */
static char *result[] = {
/* columns rows colors chars-per-pixel */
"64 64 231 2 ",
"   c #010101",
".  c #0D0905",
"X  c #0C0C0C",
"o  c #040408",
"O  c #120D06",
"+  c #1A1106",
"@  c #1A130C",
"#  c #141413",
"$  c #1C1C1B",
"%  c #171717",
"&  c #0D1012",
"*  c #291905",
"=  c #231D15",
"-  c #211E1B",
";  c #321C06",
":  c #3C290D",
">  c #2C2215",
",  c #28241C",
"<  c #312616",
"1  c #3D301F",
"2  c #09152D",
"3  c #1C222C",
"4  c #232222",
"5  c #2A2A2A",
"6  c #2A2725",
"7  c #312C26",
"8  c #332F29",
"9  c #34322E",
"0  c #393529",
"q  c #292D33",
"w  c #2D3335",
"e  c #353535",
"r  c #3B3A33",
"t  c #3C3C3C",
"y  c #393733",
"u  c #4A2A07",
"i  c #493216",
"p  c #573912",
"a  c #5F3709",
"s  c #4A3E2C",
"d  c #453E34",
"f  c #503A23",
"g  c #6F4C1D",
"h  c #5E4B2B",
"j  c #594226",
"k  c #4A443D",
"l  c #474239",
"z  c #554B39",
"x  c #6D5533",
"c  c #7D603A",
"v  c #0D2755",
"b  c #363D45",
"n  c #092C6A",
"m  c #3C464C",
"M  c #394653",
"N  c #3E5170",
"B  c #434342",
"V  c #4C4C4D",
"C  c #464A49",
"Z  c #544C43",
"A  c #5B534B",
"S  c #57544C",
"D  c #434E5A",
"F  c #4B555B",
"G  c #545455",
"H  c #5C5C5C",
"J  c #545A5D",
"K  c #685E4D",
"L  c #6C5C4B",
"P  c #69655B",
"I  c #776C5B",
"U  c #73684D",
"Y  c #535563",
"T  c #4F5466",
"R  c #646464",
"E  c #6D6D6D",
"W  c #696B68",
"Q  c #756E62",
"!  c #7A7365",
"~  c #637278",
"^  c #737373",
"/  c #7B7B7A",
"(  c #77797A",
")  c #93621D",
"_  c #A86618",
"`  c #875C21",
"'  c #85653B",
"]  c #926229",
"[  c #BB7D28",
"{  c #AB7430",
"}  c #895313",
"|  c #C97D27",
" . c #9B7A4F",
".. c #847256",
"X. c #8B704E",
"o. c #A27749",
"O. c #897A6B",
"+. c #897C72",
"@. c #C2832C",
"#. c #C18338",
"$. c #D5923C",
"%. c #EAA23E",
"&. c #E69029",
"*. c #B48C59",
"=. c #86817A",
"-. c #938978",
";. c #94856D",
":. c #A79276",
">. c #B09472",
",. c #CA9353",
"<. c #E59F4C",
"1. c #EAA44B",
"2. c #FFB656",
"3. c #F5AA51",
"4. c #C59766",
"5. c #D4A468",
"6. c #CAA571",
"7. c #C3A46D",
"8. c #EBAC61",
"9. c #FDBD69",
"0. c #E7B876",
"q. c #F9BE78",
"w. c #FFC26C",
"e. c #FCC67A",
"r. c #002F82",
"t. c #1D4FA1",
"y. c #677A84",
"u. c #636484",
"i. c #7E8083",
"p. c #7891A5",
"a. c #888888",
"s. c #958F89",
"d. c #9D9387",
"f. c #969697",
"g. c #8B9399",
"h. c #A39486",
"j. c #B29B8E",
"k. c #A59A92",
"l. c #B5A68B",
"z. c #A6A499",
"x. c #B5A798",
"c. c #BDB097",
"v. c #9398AF",
"b. c #95A8B6",
"n. c #88A2B3",
"m. c #A7A5A5",
"M. c #BBADA5",
"N. c #B4B2A7",
"B. c #A8B4BF",
"V. c #BAB9B8",
"C. c #B1AAB5",
"Z. c #C5AB86",
"A. c #D6B688",
"S. c #C4B49A",
"D. c #D2B693",
"F. c #C6AE94",
"G. c #E3B782",
"H. c #C5B8A6",
"J. c #CDBFB1",
"K. c #DAC099",
"L. c #FFCD8B",
"P. c #FBC987",
"I. c #FFD48B",
"U. c #EBC999",
"Y. c #FACF98",
"T. c #FFD293",
"R. c #FFDA96",
"E. c #FFD59C",
"W. c #FFD99A",
"Q. c #F4D395",
"!. c #D9C7A7",
"~. c #C9C5BD",
"^. c #DECCB7",
"/. c #FFD5A2",
"(. c #FFDAA3",
"). c #FFDDAB",
"_. c #FFD7A8",
"`. c #E4CAB8",
"'. c #E7D5B9",
"]. c #FEDDB5",
"[. c #F7D7B7",
"{. c #E9D3AF",
"}. c #FFE3AB",
"|. c #FEE2B3",
" X c #FFE3BC",
".X c #FFE9BD",
"XX c #F9E5BA",
"oX c #A9BBCA",
"OX c #B4B4CA",
"+X c #B1C7D6",
"@X c #BCC0C0",
"#X c #ADCFEA",
"$X c #B2D4EB",
"%X c #B9D9F2",
"&X c #BEE0FD",
"*X c #C9C9C9",
"=X c #DAD3C3",
"-X c #CFD0D2",
";X c #EDDCCA",
":X c #E8D5C6",
">X c #F1DFC9",
",X c #F0DFD9",
"<X c #FFEAC5",
"1X c #FFEDCB",
"2X c #F8E3C9",
"3X c #FFF2CE",
"4X c #EDE2D6",
"5X c #F6E5D2",
"6X c #FEEBD4",
"7X c #FFEEDD",
"8X c #FAE6D4",
"9X c #FFF1D4",
"0X c #FFF1DD",
"qX c #FBF6DD",
"wX c #EFE0CF",
"eX c #CAD5EE",
"rX c #C9E6FA",
"tX c #D4ECFF",
"yX c #DCEDFD",
"uX c #DBF2FF",
"iX c #FFF3E3",
"pX c #FFFAE5",
"aX c #FFFCEC",
"sX c #FBF5EB",
"dX c #E4F4FF",
"fX c #EAFAFF",
"gX c #F6FEFF",
"hX c #FDFEFF",
"jX c #F7F6F4",
"kX c #E7E8E5",
"lX c None",
/* pixels */
"lXlXlXlXlXlXlXlXlXlXlXlXlXlXlXlXlXlXlXlXlXlXlXlXlXlXlXlXlXlXlXlXlXlXlXlXlXlXlXlXlXlXlXlXlXlXlXlXlXlXlXlXlXlXlXlXlXlXlXlXlXlXlXlX",
"lXlXlXlXlXlXlXlXlXlXlXlXlXlXlXlXlXlXlXlXlXlXlXlXlXlXlXlXlXlXlXlXlXlXlXlXlXlXlXlXlXlXlXlXlXlXlXlXlXlXlXlXlXlXlXlXlXlXlXlXlXlXlXlX",
"lXlXlXlXlXlXlXlXlXlXlXlXlXlXlXlXlXlXlXlXlXlXlXlXlXlXlXlXlXlXlXlXlXlXlXlXlXlXlXlXlXlXlXlXlXlXlXlXlXlXlXlXlXlXlXlXlXlXlXlXlXlXlXlX",
"lXlXlXlXlXlXlXlXlXlXlXlXlXlXlXlXlXlXlXlXlXlXlXlXlXlXlXlXlXlXlXlXlXlXlXlXlXlXlXlXlXlXlXlXlXlXlXlXlXlXlXlXlXlXlXlXlXlXlXlXlXlXlXlX",
"lXlXlXlXlXlXlXlXlXlXlXlXlXlXlXlXlXlXlXlXlXlXlXlXlXlXlXlXlXlXlXlXlXlXlXlXlXlXlXlXlXlXlXlXlXlXlXlXlXlXlXlXlXlXlXlXlXlXlXlXlXlXlXlX",
"lXlXlXlXlXlXlXlXlXlXlXlXlXlXlXlXlXlXlXlXlXlXlXlX            lXlX          .     lXlXlXlXlXlXlXlXlXlXlXlXlXlXlXlXlXlXlXlXlXlXlXlX",
"lXlXlXlXlXlXlXlXlXlXlXlXlXlXlXlXlXlXlXlXlXlXlX5 B y e 4 X                 $ % o o   lXlXlXlXlXlXlXlXlXlXlXlXlXlXlXlXlXlXlXlXlXlX",
"lXlXlXlXlXlXlXlXlXlXlXlXlXlXlXlXlXlXlXlXlXX C f.f.^ H C $ o             % X 4 e 5 4 $   lXlXlXlXlXlXlXlXlXlXlXlXlXlXlXlXlXlXlXlX",
"lXlXlXlXlXlXlXlXlXlXlXlXlXlXlXlXlXlXlXlX$ R i.a.a.H % o   o $ % # o   $ t , e ^ ^ ^ G &   lXlXlXlXlXlXlXlXlXlXlXlXlXlXlXlXlXlXlX",
"lXlXlXlXlXlXlXlXlXlXlXlXlXlXlXlXlXlXlX  G H y ^ H 4         B ^ e 5 $ t ^ G B W ^ R H 6     lXlXlXlXlXlXlXlXlXlXlXlXlXlXlXlXlXlX",
"lXlXlXlXlXlXlXlXlXlXlXlXlXlXlXlXlXlX  % t # e 5 . . 4 O.X   X 5 P R V G G e X e y b e X     lXlXlXlXlXlXlXlXlXlXlXlXlXlXlXlXlXlX",
"lXlXlXlXlXlXlXlXlXlXlXlXlXlXlXlXlXlX  $ # o % o @ s.^.7Xx.#     & V / / V $ X o X % 4         lXlXlXlXlXlXlXlXlXlXlXlXlXlXlXlXlX",
"lXlXlXlXlXlXlXlXlXlXlXlXlXlXlXlXlX            % h.8X7X7XiXd.X 7   X B V 4 4 X   o     #       lXlXlXlXlXlXlXlXlXlXlXlXlXlXlXlXlX",
"lXlXlXlXlXlXlXlXlXlXlXlXlXlXlXlX        S X % k.7X7X7X7X7X,Xk h.A   o 5 & X X         X         lXlXlXlXlXlXlXlXlXlXlXlXlXlXlXlX",
"lXlXlXlXlXlXlXlXlXlXlXlXlXlXlXlX      P H % d.iX7X7X7X7X7X7Xj.A c.A   # &   o                   lXlXlXlXlXlXlXlXlXlXlXlXlXlXlXlX",
"lXlXlXlXlXlXlXlXlXlXlXlXlXlXlXlX      z.r 6 iXsX7X7X7X7X7X7X:X9 :X`.Z   . o                     lXlXlXlXlXlXlXlXlXlXlXlXlXlXlXlX",
"lXlXlXlXlXlXlXlXlXlXlXlXlXlXlXlX    & N.k x.aX0X7X7XiX7X7X7X8XA ;X7X+.o             X   o X     lXlXlXlXlXlXlXlXlXlXlXlXlXlXlXlX",
"lXlXlXlXlXlXlXlXlXlXlXlXlXlXlXlX    E aXQ =X7X0X7X7X7X7X7X7X7X^.7X7X;Xd   . ,   o X t X e 5     lXlXlXlXlXlXlXlXlXlXlXlXlXlXlXlX",
"lXlXlXlXlXlXlXlXlXlXlXlXlXlXlXlX  $ N.aX:X7X7X7X7X7X7X7X7X7X7X7X7X7X7X-.X $ j.7 & l V y G 5   lXlXlXlXlXlXlXlXlXlXlXlXlXlXlXlXlX",
"lXlXlXlXlXlXlXlXlXlXlXlXlXlXlXlXlXV pX0X0X7X7X7X7X7X7X7X7X7X7X7X7X7X7X>X+.7 ;XF.Q ( E G G 5   lXlXlXlXlXlXlXlXlXlXlXlXlXlXlXlXlX",
"lXlXlXlXlXlXlXlXlXlXlXlXlXlXlXlXlXZ pX-.d O.wX7X7X7X7X7X7X7X7X7X,XwXs.d 7 . e U l.a./ ^ W 5 lXlXlXlXlXlXlXlXlXlXlXlXlXlXlXlXlXlX",
"lXlXlXlXlXlXlXlXlXlXlXlXlXlXlXlXlXS h.X   o 6 =.5X0X7X7X7X8X:XH.0 $ .           ..z.g./ / y lXlXlXlXlXlXlXlXlXlXlXlXlXlXlXlXlXlX",
"lXlXlXlXlXlXlXlXlXlXlXlXlXlXlXlXlXz U.z         I 2X7X7X7XH.7               @ d >.H.f.( E 4 lXlXlXlXlXlXlXlXlXlXlXlXlXlXlXlXlXlX",
"lXlXlXlXlXlXlXlXlXlXlXlXlXlXlXlXlXQ 6.' 6 # G X   >. X<XD.7   . o y 5       - Z.}.Y.>.O.V Q P lXlXlXlXlXlXlXlXlXlXlXlXlXlXlXlXlX",
"lXlXlXlXlXlXlXlXlXlXlXlXlXlXlXlXr z.x x.v.V -X5 o *.Y.].A.j * Y w -Xg.X T T   - 7.L.U.G.l..X6Xd.# lXlXlXlXlXlXlXlXlXlXlXlXlXlXlX",
"lXlXlXlXlXlXlXlXlXlXlXlXlXlXlXlXy z.L ,XeXb G % u.G.P._.W.8.| C.G -XC o OXeXv.f.0.W.).!.l { L.;X% lXlXlXlXlXlXlXlXlXlXlXlXlXlXlX",
"lXlXlXlXlXlXlXlXlXlXlXlXlXlXlXlX8 2X..z.fX$ o   f.W.E._.(.P.2.:X4 3 2 2 @XhXhX8X(.). XH.u } F.;X% lXlXlXlXlXlXlXlXlXlXlXlXlXlXlX",
"lXlXlXlXlXlXlXlXlXlXlXlXlXlXlXlX5 ^.! d.jX4 v n s.<X].].]./.Y.4X3 r.t.n ~.hXhX7X).).[.h.' q.2XH.% lXlXlXlXlXlXlXlXlXlXlXlXlXlXlX",
"lXlXlXlXlXlXlXlXlXlXlXlXlXlXlXlXlXA M.=.kXg.n N V.7X6X6X7X<X XsX=.v t.D -XhXhX1X}.(.U.=.7X6X X7 lXlXlXlXlXlXlXlXlXlXlXlXlXlXlXlX",
"lXlXlXlXlXlXlXlXlXlXlXlXlXlXlXlXlX9 H.K V.jXa.V.hXsX7X7X7X7X0XsXjXz.=.V.hXhX0X).W.P.T.].).e.o.= lXlXlXlXlXlXlXlXlXlXlXlXlXlXlXlX",
"lXlXlXlXlXlXlXlXlXlXlXlXlXlXlXlXlXlXy - H.,XR F N.iX7X7X7X7X7X7XaX~.G G G W |.W.e.e.' 3.[ i * lXlXlXlXlXlXlXlXlXlXlXlXlXlXlXlXlX",
"lXlXlXlXlXlXlXlXlXlXlXlXlXlXlXlXlXlXlX  x.8XJ.J.;X7X7XiXiX7X7X7X0XwXH.D.Z.A.I.e.' = lX; * lXlXlXlXlXlXlXlXlXlXlXlXlXlXlXlXlXlXlX",
"lXlXlXlXlXlXlXlXlXlXlXlXlXlXlXlXlXlXlXlX, H.1X6X7X7X6X~.=X0X6X6X1X<X}.(.}.P.5.U lXlXlXlXlXlXlXlXlXlXlXlXlXlXlXlXlXlXlXlXlXlXlXlX",
"lXlXlXlXlXlXlXlXlXlXlXlXlXlXlXlXlXlXlXlXlX> :.D.<X1X[.Z ;.1X X}.(.W.R.P.*.*.O lXlXlXlXlXlXlXlXlXlXlXlXlXlXlXlXlXlXlXlXlXlXlXlXlX",
"lXlXlXlXlXlXlXlXlXlXlXlXlXlXlXlXlXlXlXlXlXlXlXl ..A.I.R.R.R.R.I.0.' ' X.> lXlXlXlXlXlXlXlXlXlXlXlXlXlXlXlXlXlXlXlXlXlXlXlXlXlXlX",
"lXlXlXlXlXlXlXlXlXlXlXlXlXlXlXlXlXlXlXlXlXlXlXlXlXf j h h h h h x x     lXlXlXlXlXlXlXlXlXlXlXlXlXlXlXlXlXlXlXlXlXlXlXlXlXlXlXlX",
"lXlXlXlXlXlXlXlXlXlXlXlXlXlXlXlXlXlXlXlXlXlXlXlXlXlXlXlX    ~ w *.*.F D . O lXlXlXlXlXlXlXlXlXlXlXlXlXlXlXlXlXlXlXlXlXlXlXlXlXlX",
"lXlXlXlXlXlXlXlXlXlXlXlXlXlXlXlXlXlXlXlXlXlXlXlXlXlXlXe / ~ F ;.t ~ y. .U.7.> lXlXlXlXlXlXlXlXlXlXlXlXlXlXlXlXlXlXlXlXlXlXlXlXlX",
"lXlXlXlXlXlXlXlXlXlXlXlXlXlXlXlXlXlXlXlXlXlXlXlXlXlXlXy T v.b G eX$Xy. .D..X*.  lXlXlXlXlXlXlXlXlXlXlXlXlXlXlXlXlXlXlXlXlXlXlXlX",
"lXlXlXlXlXlXlXlXlXlXlXlXlXlXlXlXlXlXlXlXlXlXlXlXlXlX@ / f.gXuXgXyXrXn.L , ;.A.s lXlXlXlXlXlXlXlXlXlXlXlXlXlXlXlXlXlXlXlXlXlXlXlX",
"lXlXlXlXlXlXlXlXlXlXlXlXlXlXlXlXlXlXlXlXlXlXlXlXlXlX  q tXtXdXhXrXuX$Xp.% % ].5.u lXlXlXlXlXlXlXlXlXlXlXlXlXlXlXlXlXlXlXlXlXlXlX",
"lXlXlXlXlXlXlXlXlXlXlXlXlXlXlXlXlXlXlXlXlXlXlXlXlXlX  b fXtXrXuX&XrX#X$Xw = [.R.g lXlXlXlXlXlXlXlXlXlXlXlXlXlXlXlXlXlXlXlXlXlXlX",
"lXlXlXlXlXlXlXlXlXlXlXlXlXlXlXlXlXlXlXlXlXlXlXlXlXlX% +XhXtXdXhXrXfX%X$Xm = `.|.8.u lXlXlXlXlXlXlXlXlXlXlXlXlXlXlXlXlXlXlXlXlXlX",
"lXlXlXlXlXlXlXlXlXlXlXlXlXlXlXlXlXlXlXlXlXlXlXlXlX< % n.~.oXB.V.b.@Xb.b.b.X k <XL.i lXlXlXlXlXlXlXlXlXlXlXlXlXlXlXlXlXlXlXlXlXlX",
"lXlXlXlXlXlXlXlXlXlXlXlXlXlXlXlXlXlXlXlXlXlXlXlXl 6.< D Y J J H F J M F &   0 ).].' lXlXlXlXlXlXlXlXlXlXlXlXlXlXlXlXlXlXlXlXlXlX",
"lXlXlXlXlXlXlXlXlXlXlXlXlXlXlXlXlXlXlXlXlXlXlXB ~.XXr rXhXuXgXhXtXgXrXp.^ +.:.).).9.* lXlXlXlXlXlXlXlXlXlXlXlXlXlXlXlXlXlXlXlXlX",
"lXlXlXlXlXlXlXlXlXlXlXlXlXlXlXlXlXlXlXlXlXlXr =XpX5Xr %XhXyXdXhXrXhXrXm S.qX9X9X].q.> lXlXlXlXlXlXlXlXlXlXlXlXlXlXlXlXlXlXlXlXlX",
"lXlXlXlXlXlXlXlXlXlXlXlXlXlXlXlXlXlXlXlXlXlXB pX<XXXl eXdXg.C.hXtXgXrXM l.1X1X.X/.P.[ . lXlXlXlXlXlXlXlXlXlXlXlXlXlXlXlXlXlXlXlX",
"lXlXlXlXlXlXlXlXlXlXlXlXlXlXlXlXlXlXlXlXlXlXl 9X.X}.5.t oXoXC m.+XoX+XM 6.].|.].T.w.&.. lXlXlXlXlXlXlXlXlXlXlXlXlXlXlXlXlXlXlXlX",
"lXlXlXlXlXlXlXlXlXlXlXlXlXlXlXlXlXlXlXlXlXlXr K.}.R.8.= Z f +   @ z j @ ` P.R.T.L.2._ O lXlXlXlXlXlXlXlXlXlXlXlXlXlXlXlXlXlXlXlX",
"lXlXlXlXlXlXlXlXlXlXlXlXlXlXlXlXlXlXlXlXlXlXlXl ..' g r <X9.p lX9  Xe.{ @ 0.I.w.2._ + lXlXlXlXlXlXlXlXlXlXlXlXlXlXlXlXlXlXlXlXlX",
"lXlXlXlXlXlXlXlXlXlXlXlXlXlXlXlXlXlXlXlXlXlXlXlXlXlXlXr XX9.p lX9 <X(.2.: j h p a * lXlXlXlXlXlXlXlXlXlXlXlXlXlXlXlXlXlXlXlXlXlX",
"lXlXlXlXlXlXlXlXlXlXlXlXlXlXlXlXlXlXlXlXlXlXlXlXlXlXlXr XXI.,.: lX! .X9.: lXlXlXlXlXlXlXlXlXlXlXlXlXlXlXlXlXlXlXlXlXlXlXlXlXlXlX",
"lXlXlXlXlXlXlXlXlXlXlXlXlXlXlXlXlXlXlXlXlXlXlXlXlXlXlXlXP .X2.* lXZ 1XT.j lXlXlXlXlXlXlXlXlXlXlXlXlXlXlXlXlXlXlXlXlXlXlXlXlXlXlX",
"lXlXlXlXlXlXlXlXlXlXlXlXlXlXlXlXlXlXlXlXlXlXlXlXlXlXlXlXA <Xe.g lXl ^.W.1.@ lXlXlXlXlXlXlXlXlXlXlXlXlXlXlXlXlXlXlXlXlXlXlXlXlXlX",
"lXlXlXlXlXlXlXlXlXlXlXlXlXlXlXlXlXlXlXlXlXlXlXlXlXlXlXlXA 3XW.%.+ lXQ  Xw.g lXlXlXlXlXlXlXlXlXlXlXlXlXlXlXlXlXlXlXlXlXlXlXlXlXlX",
"lXlXlXlXlXlXlXlXlXlXlXlXlXlXlXlXlXlXlXlXlXlXlXlXlXlXlX7 c.9X/.1.+ lX! 3XT.,.. lXlXlXlXlXlXlXlXlXlXlXlXlXlXlXlXlXlXlXlXlXlXlXlXlX",
"lXlXlXlXlXlXlXlXlXlXlXlXlXlXlXlXlXlXlXlXlXlXlXlXX X . % -.<X/.1.@ o 6 c.(.P.] lXlXlXlXlXlXlXlXlXlXlXlXlXlXlXlXlXlXlXlXlXlXlXlXlX",
"lXlXlXlXlXlXlXlXlXlXlXlXlXlXlXlXlXlXlXlXlXlXlXK ^.!.!.!.{.|.w.j !.!.D.W.R.2.[   lXlXlXlXlXlXlXlXlXlXlXlXlXlXlXlXlXlXlXlXlXlXlXlX",
"lXlXlXlXlXlXlXlXlXlXlXlXlXlXlXlXlXlXlXlXlXlXlXA S.S.Z.*.,.#.[ < l.6.*.#.@.@.) lXlXlXlXlXlXlXlXlXlXlXlXlXlXlXlXlXlXlXlXlXlXlXlXlX",
"lXlXlXlXlXlXlXlXlXlXlXlXlXlXlXlXlXlXlXlXlXlXlXlXo                           lXlXlXlXlXlXlXlXlXlXlXlXlXlXlXlXlXlXlXlXlXlXlXlXlXlX",
"lXlXlXlXlXlXlXlXlXlXlXlXlXlXlXlXlXlXlXlXlXlXlXlXlXlXlXlXlXlXlXlXlXlXlXlXlXlXlXlXlXlXlXlXlXlXlXlXlXlXlXlXlXlXlXlXlXlXlXlXlXlXlXlX",
"lXlXlXlXlXlXlXlXlXlXlXlXlXlXlXlXlXlXlXlXlXlXlXlXlXlXlXlXlXlXlXlXlXlXlXlXlXlXlXlXlXlXlXlXlXlXlXlXlXlXlXlXlXlXlXlXlXlXlXlXlXlXlXlX",
"lXlXlXlXlXlXlXlXlXlXlXlXlXlXlXlXlXlXlXlXlXlXlXlXlXlXlXlXlXlXlXlXlXlXlXlXlXlXlXlXlXlXlXlXlXlXlXlXlXlXlXlXlXlXlXlXlXlXlXlXlXlXlXlX"
};
